<?xml version="1.0" encoding="UTF-8"?>
<svg id="_Слой_1" data-name="Слой 1" xmlns="http://www.w3.org/2000/svg" viewBox="0 0 18 18">
  <path d="m17.04,12.64c.54-1.17.81-2.42.81-3.72C17.85,4,13.85,0,8.93,0S0,4,0,8.93s4,8.93,8.93,8.93c1.32,0,2.58-.28,3.75-.83l5.32.98-.96-5.36Zm-.77,3.62l-3.69-.68-.11-.02-.23.11c-1.02.51-2.14.77-3.31.77-4.15,0-7.52-3.37-7.52-7.52,0-2,.78-3.89,2.2-5.31,1.42-1.43,3.31-2.21,5.32-2.21,4.15,0,7.52,3.38,7.52,7.52,0,1.16-.25,2.26-.75,3.28l-.12.23.69,3.82Zm-10.99-4.2c.13.06.26.09.41.09s.27-.06.41-.17.2-.31.2-.59v-6.62h1.37v6.89c0,.29-.05.53-.14.73-.09.2-.23.37-.4.5-.17.13-.37.23-.6.29s-.47.09-.73.09c-.21,0-.42-.03-.62-.08s-.37-.12-.53-.19-.28-.15-.38-.22l.7-.94c.09.09.19.17.32.22Zm6.15-3.94c.16-.18.3-.34.42-.49.11-.15.2-.3.26-.46s.09-.31.09-.47c0-.12-.02-.23-.06-.34s-.11-.21-.19-.29-.19-.15-.31-.21-.26-.08-.42-.08c-.22,0-.42.05-.58.16-.16.11-.28.26-.37.45-.09.2-.13.42-.13.67h-1.28c0-.46.09-.87.27-1.23.18-.36.45-.65.81-.87.36-.22.79-.32,1.31-.32.38,0,.72.06,1.01.18.29.12.53.27.72.47.19.19.33.4.43.63.09.23.14.46.14.69,0,.34-.08.66-.25.96-.16.3-.38.57-.65.81l-1.66,1.57h2.67v1.19h-5.13l2.9-3.03Z"/>
</svg>