<!-- Generated by IcoMoon.io -->
<svg version="1.1" xmlns="http://www.w3.org/2000/svg" width="32" height="32" viewBox="0 0 32 32">
<title>ai21_j2</title>
<path fill="currentColor" d="M9.685 23.403c0.224 0.107 0.48 0.16 0.779 0.16 0.256 0 0.501-0.117 0.747-0.341s0.373-0.608 0.373-1.141v-12.299h1.312v12.469c0 0.448-0.053 0.832-0.171 1.163s-0.277 0.597-0.501 0.821c-0.224 0.213-0.48 0.384-0.8 0.48-0.309 0.107-0.661 0.16-1.045 0.16-0.288 0-0.565-0.043-0.832-0.139s-0.501-0.203-0.693-0.331c-0.171-0.128-0.32-0.245-0.405-0.352l0.725-1.077c0.117 0.181 0.288 0.331 0.512 0.427zM19.968 15.477c0.256-0.277 0.469-0.544 0.651-0.811s0.32-0.544 0.416-0.821c0.096-0.277 0.139-0.576 0.139-0.875 0-0.256-0.053-0.501-0.149-0.736-0.096-0.245-0.245-0.459-0.437-0.651s-0.427-0.352-0.693-0.48c-0.277-0.117-0.587-0.181-0.939-0.181-0.491 0-0.917 0.117-1.269 0.341s-0.629 0.544-0.811 0.971c-0.181 0.416-0.277 0.917-0.277 1.504h-1.397c0-0.821 0.149-1.536 0.448-2.155s0.725-1.099 1.291-1.44c0.565-0.341 1.237-0.512 2.027-0.512 0.629 0 1.184 0.107 1.643 0.32s0.843 0.491 1.131 0.821c0.299 0.331 0.512 0.693 0.661 1.077 0.139 0.384 0.213 0.747 0.213 1.099 0 0.587-0.139 1.173-0.427 1.76-0.288 0.576-0.651 1.099-1.099 1.557l-3.659 3.723h5.237v1.312h-8.107l5.408-5.824zM30.411 22.613c0.992-2.101 1.493-4.363 1.493-6.709 0-8.768-7.136-15.904-15.904-15.904s-15.904 7.136-15.904 15.904 7.136 15.904 15.904 15.904c2.389 0 4.672-0.512 6.784-1.525l9.312 1.717-1.685-9.387zM30.123 30.016l-7.573-1.397-0.235 0.117c-1.952 0.981-4.085 1.472-6.315 1.472-7.893 0.011-14.315-6.411-14.315-14.304s6.421-14.304 14.315-14.304c7.893 0 14.315 6.421 14.315 14.315 0 2.197-0.48 4.299-1.44 6.24l-0.117 0.235 1.365 7.627z"></path>
</svg>
