<?xml version="1.0" encoding="UTF-8"?>
<svg id="_Слой_1" data-name="Слой 1" xmlns="http://www.w3.org/2000/svg" viewBox="0 0 18 18">
  <g>
    <polygon points="18 5.14 16 6 16 2.57 18 1.71 18 5.14"/>
    <polygon points="17.67 .86 15.67 1.71 13.67 .86 15.67 0 17.67 .86"/>
    <polygon points="15.33 6 13.33 5.14 13.33 1.71 15.33 2.57 15.33 6"/>
  </g>
  <g>
    <polygon points="12.67 5.14 10.67 6 10.67 2.57 12.67 1.71 12.67 5.14"/>
    <polygon points="12.33 .86 10.33 1.71 8.33 .86 10.33 0 12.33 .86"/>
    <polygon points="10 6 8 5.14 8 1.71 10 2.57 10 6"/>
  </g>
  <g>
    <polygon points="10 11.14 8 12 8 8.57 10 7.71 10 11.14"/>
    <polygon points="9.67 6.86 7.67 7.71 5.67 6.86 7.67 6 9.67 6.86"/>
    <polygon points="7.33 12 5.33 11.14 5.33 7.71 7.33 8.57 7.33 12"/>
  </g>
  <g>
    <polygon points="4.67 11.14 2.67 12 2.67 8.57 4.67 7.71 4.67 11.14"/>
    <polygon points="4.33 6.86 2.33 7.71 .33 6.86 2.33 6 4.33 6.86"/>
    <polygon points="2 12 0 11.14 0 7.71 2 8.57 2 12"/>
  </g>
  <g>
    <polygon points="7.33 17.14 5.33 18 5.33 14.57 7.33 13.71 7.33 17.14"/>
    <polygon points="7 12.86 5 13.71 3 12.86 5 12 7 12.86"/>
    <polygon points="4.67 18 2.67 17.14 2.67 13.71 4.67 14.57 4.67 18"/>
  </g>
</svg>