<!-- Generated by IcoMoon.io -->
<svg version="1.1" xmlns="http://www.w3.org/2000/svg" width="32" height="32" viewBox="0 0 32 32">
<title>awc</title>
<path d="M0 13.419c0.309 0.096 0.608 0.192 0.917 0.288 0.896 0.267 1.803 0.533 2.699 0.8 0.064 0.021 0.107 0.032 0.096 0.117-0.011 0.491-0.011 0.981-0.011 1.472 0 1.248 0 2.507 0 3.755 0 0.053 0 0.107-0.011 0.181-0.064-0.021-0.107-0.032-0.16-0.043-1.131-0.373-2.251-0.747-3.381-1.131-0.053-0.021-0.107-0.032-0.171-0.053 0.021-1.803 0.021-3.595 0.021-5.387zM8.427 27.797c0-1.749 0-3.499 0-5.248 0-0.085-0.032-0.128-0.117-0.16-1.12-0.331-2.24-0.661-3.349-0.992-0.075-0.021-0.139-0.032-0.224-0.064 0 0.064 0 0.107 0 0.16 0 1.685 0 3.36 0 5.045 0 0.117 0.043 0.171 0.149 0.203 1.12 0.363 2.229 0.736 3.339 1.109 0.064 0.021 0.128 0.043 0.203 0.064 0-0.043 0-0.085 0-0.117zM23.584 5.664c0 1.696 0 3.403 0 5.099 0 0.096 0.032 0.139 0.117 0.171 1.152 0.384 2.304 0.768 3.467 1.152 0.032 0.011 0.064 0.011 0.107 0.021 0-0.032 0.011-0.053 0.011-0.075 0-1.771 0-3.531 0.011-5.301 0-0.085-0.043-0.117-0.117-0.149-0.885-0.256-1.781-0.523-2.667-0.789-0.299-0.085-0.587-0.171-0.907-0.267-0.021 0.064-0.021 0.107-0.021 0.139zM13.152 19.765c0-1.696 0-3.392 0-5.088 0-0.107-0.032-0.149-0.139-0.181-1.056-0.309-2.112-0.619-3.157-0.939-0.128-0.043-0.256-0.075-0.395-0.117 0 0.053-0.011 0.085-0.011 0.117 0 1.707 0 3.403 0 5.109 0 0.096 0.032 0.139 0.128 0.171 1.003 0.331 1.995 0.661 2.997 1.003 0.181 0.064 0.352 0.117 0.565 0.181 0-0.107 0.011-0.181 0.011-0.256zM17.856 12c0-1.749 0-3.488 0-5.237 0-0.107-0.043-0.139-0.139-0.171-0.96-0.277-1.92-0.565-2.869-0.853-0.224-0.064-0.448-0.128-0.693-0.203 0 0.064 0 0.117 0 0.16 0 1.675 0 3.36 0 5.035 0 0.128 0.043 0.171 0.149 0.213 1.088 0.352 2.165 0.715 3.253 1.077 0.085 0.032 0.181 0.064 0.288 0.096 0-0.053 0.011-0.085 0.011-0.117zM4.885 19.979c1.131-0.384 2.261-0.757 3.392-1.131 0.117-0.043 0.16-0.085 0.16-0.213 0-1.675 0-3.36 0-5.035 0-0.043 0-0.085 0-0.149-0.064 0.011-0.107 0.021-0.16 0.032-1.141 0.341-2.272 0.672-3.413 1.013-0.107 0.032-0.128 0.085-0.128 0.192 0 1.739 0 3.477 0 5.205 0 0.032 0 0.075 0 0.139 0.064-0.032 0.107-0.043 0.149-0.053zM14.293 19.989c1.141-0.384 2.283-0.768 3.424-1.141 0.117-0.043 0.139-0.096 0.139-0.203 0-1.685 0-3.36 0-5.045 0-0.043 0-0.085 0-0.139-0.043 0.011-0.075 0.011-0.107 0.021-1.141 0.341-2.293 0.683-3.435 1.013-0.128 0.032-0.16 0.085-0.16 0.213 0 1.728 0 3.445 0 5.173 0 0.043 0 0.085 0 0.149 0.053-0.021 0.096-0.032 0.139-0.043zM31.872 5.568c-1.141 0.341-2.283 0.683-3.424 1.013-0.117 0.032-0.149 0.085-0.149 0.203 0 1.728 0 3.456 0 5.184 0 0.043 0 0.085 0 0.149 0.064-0.021 0.107-0.032 0.149-0.043 1.131-0.373 2.261-0.757 3.392-1.131 0.117-0.043 0.16-0.096 0.16-0.224 0-1.675 0-3.36 0-5.035 0-0.043 0-0.085 0-0.139-0.064 0.011-0.096 0.011-0.128 0.021zM18.997 12.085c1.152-0.384 2.293-0.768 3.445-1.152 0.085-0.032 0.117-0.075 0.117-0.16 0-0.597 0.011-1.184 0.021-1.781 0-1.099 0-2.197 0-3.307 0-0.043 0-0.085-0.011-0.139-0.053 0.011-0.096 0.021-0.139 0.032-1.141 0.341-2.272 0.672-3.413 1.013-0.107 0.032-0.149 0.075-0.149 0.192 0 1.728 0 3.467 0 5.195 0 0.043 0 0.085 0 0.149 0.064-0.021 0.096-0.032 0.128-0.043zM9.579 27.883c1.141-0.384 2.293-0.768 3.435-1.152 0.085-0.032 0.117-0.064 0.117-0.16 0-1.696 0.011-3.403 0.021-5.099 0-0.043-0.011-0.085-0.011-0.139-0.043 0.011-0.075 0.011-0.107 0.021-1.163 0.341-2.315 0.683-3.477 1.024-0.107 0.032-0.107 0.107-0.107 0.192 0 1.728 0 3.456 0 5.184 0 0.043 0 0.085 0 0.149 0.053 0 0.096-0.011 0.128-0.021zM10.379 12.853c1.045 0.277 2.080 0.555 3.125 0.832 0.085 0.021 0.181 0.021 0.267 0 0.821-0.213 1.632-0.427 2.453-0.651 0.267-0.075 0.533-0.139 0.821-0.213-0.043-0.011-0.053-0.021-0.075-0.021-1.077-0.331-2.165-0.672-3.243-1.003-0.064-0.021-0.149-0.011-0.213 0.011-0.576 0.171-1.141 0.352-1.707 0.533-0.501 0.16-0.992 0.309-1.515 0.469 0.032 0.021 0.053 0.032 0.085 0.043zM0.971 12.853c1.056 0.288 2.101 0.565 3.157 0.843 0.064 0.021 0.139 0.011 0.192-0.011 0.715-0.192 1.44-0.373 2.155-0.565 0.373-0.096 0.736-0.203 1.12-0.299-0.011-0.011-0.021-0.021-0.021-0.021-1.088-0.331-2.176-0.672-3.264-1.003-0.075-0.021-0.16-0.011-0.224 0.011-0.533 0.16-1.067 0.331-1.6 0.501s-1.067 0.331-1.621 0.512c0.043 0.011 0.075 0.021 0.107 0.032zM15.019 4.928c1.077 0.288 2.144 0.576 3.221 0.864 0.075 0.021 0.171 0.011 0.256 0 0.8-0.213 1.6-0.427 2.4-0.64 0.277-0.075 0.555-0.149 0.853-0.224-0.053-0.021-0.075-0.032-0.096-0.043-1.067-0.331-2.123-0.661-3.189-0.981-0.075-0.021-0.171-0.021-0.256 0.011-0.693 0.213-1.387 0.427-2.080 0.651-0.373 0.117-0.736 0.235-1.109 0.352 0 0 0 0 0 0.011zM5.632 20.736c1.035 0.277 2.080 0.555 3.115 0.832 0.117 0.032 0.235 0.043 0.352 0.011 0.811-0.224 1.632-0.437 2.443-0.651 0.245-0.064 0.501-0.139 0.779-0.213-0.053-0.021-0.075-0.032-0.107-0.032-1.035-0.32-2.080-0.64-3.115-0.971-0.128-0.043-0.235-0.043-0.363 0-0.192 0.075-0.395 0.128-0.597 0.192-0.853 0.267-1.707 0.533-2.581 0.811 0.043 0.011 0.053 0.021 0.075 0.021zM24.459 4.939c1.067 0.288 2.133 0.576 3.211 0.853 0.064 0.021 0.139 0.021 0.203 0 0.651-0.171 1.301-0.341 1.952-0.512 0.437-0.117 0.875-0.235 1.344-0.363-0.064-0.021-0.107-0.043-0.139-0.053-1.045-0.32-2.101-0.651-3.147-0.971-0.075-0.021-0.171-0.011-0.256 0.011-0.928 0.288-1.856 0.576-2.784 0.875-0.139 0.043-0.267 0.085-0.405 0.128 0.011 0.021 0.021 0.021 0.021 0.032z"></path>
</svg>
