<!-- Generated by IcoMoon.io -->
<svg version="1.1" xmlns="http://www.w3.org/2000/svg" width="32" height="32" viewBox="0 0 32 32">
<title>databricks</title>
<path d="M29.216 13.077l-13.237 7.477-14.080-7.968-0.661 0.352v5.781l14.741 8.363 13.237-7.477v3.072l-13.237 7.477-14.080-7.957-0.661 0.352v0.981l14.741 8.373 14.784-8.363v-5.781l-0.661-0.352-14.123 7.968-13.195-7.488v-3.029l13.195 7.435 14.784-8.363v-5.707l-0.757-0.405-14.037 7.925-12.469-7.072 12.48-7.029 10.304 5.781 0.928-0.491v-0.715l-11.232-6.315-14.741 8.32v0.885l14.741 8.363 13.237-7.477v3.083z"></path>
</svg>
