<!-- Generated by IcoMoon.io -->
<svg version="1.1" xmlns="http://www.w3.org/2000/svg" width="32" height="32" viewBox="0 0 32 32">
<title>dolly</title>
<path d="M9.92 26.464c-3.349 1.109-6.187 0.416-7.893-2.784-1.6-2.987-0.683-5.621 1.824-7.808-1.493-1.12-2.368-2.603-2.539-4.448-0.107-1.195 0.096-2.357 0.725-3.392 1.877-3.061 4.576-3.765 7.872-2.677 0.619-3.211 2.464-5.323 5.813-5.44 3.627-0.128 5.675 1.973 6.389 5.44 3.168-1.045 5.931-0.491 7.691 2.464 1.824 3.061 0.981 5.803-1.632 8.128 1.589 1.195 2.464 2.784 2.549 4.768 0.053 1.237-0.288 2.4-0.949 3.456-0.821 1.28-1.973 2.133-3.413 2.56-1.429 0.427-2.848 0.299-4.224-0.309-0.779 3.637-2.901 5.76-6.699 5.461-3.211-0.256-4.939-2.336-5.515-5.419zM11.211 15.915c0 1.675 0 3.349 0 5.024 0 0.299 0.032 0.608 0.085 0.907 0.544 2.891 3.648 4.619 6.389 3.563 1.899-0.725 3.115-2.496 3.125-4.533 0-3.221 0-6.432 0-9.653 0-0.309-0.021-0.629-0.064-0.939-0.288-2.229-2.091-3.947-4.32-4.139-2.805-0.245-5.205 1.963-5.205 4.789-0.011 1.653-0.011 3.317-0.011 4.981zM7.371 11.232c0 0.011 0 0.011 0 0-0.96 0-1.909 0.011-2.869 0-0.277 0-0.363 0.107-0.331 0.373 0.181 1.632 1.568 2.891 3.2 2.891 1.536-0.011 2.848-1.12 3.115-2.635 0.107-0.629 0.107-0.629-0.523-0.629-0.875 0-1.728 0-2.592 0zM24.693 11.232c-0.885 0-1.771 0-2.656 0-0.587 0-0.64 0.085-0.523 0.661 0.309 1.589 1.877 2.859 3.701 2.539 1.365-0.235 2.517-1.461 2.603-2.837 0.021-0.309-0.085-0.373-0.363-0.373-0.917 0.021-1.835 0.011-2.763 0.011zM15.957 23.904c0.811 0.043 1.739-0.704 1.888-1.493 0.043-0.256-0.043-0.352-0.309-0.341-0.64 0.011-1.291 0-1.931 0-0.469 0-0.939 0-1.429 0 0.021 1.003 0.811 1.781 1.781 1.835zM13.013 13.707c0.597 0 1.045-0.459 1.045-1.067-0.011-0.555-0.491-1.056-1.035-1.056-0.565-0.011-1.035 0.491-1.035 1.088s0.437 1.035 1.024 1.035zM18.101 12.832c-0.096 0.011-0.171 0.139-0.256 0.213 0.075 0.075 0.149 0.203 0.235 0.203 0.555 0.021 1.109 0.021 1.664 0 0.075 0 0.192-0.139 0.203-0.224 0-0.064-0.128-0.192-0.213-0.203-0.267-0.021-0.533-0.011-0.8-0.011-0.277 0.011-0.565 0-0.832 0.021z"></path>
</svg>
