<?xml version="1.0" encoding="UTF-8"?>
<svg id="_Слой_1" data-name=" Слой 1" xmlns="http://www.w3.org/2000/svg" viewBox="0 0 18 16.09">
  <defs>
    <style>
      .cls-1 {
        fill: #75787c;
      }

      .cls-2 {
        fill: #555658;
      }

      .cls-3 {
        fill: #76787c;
      }

      .cls-4 {
        fill: #86888c;
      }

      .cls-5 {
        fill: #5d5e61;
      }

      .cls-6 {
        fill: #82868b;
      }

      .cls-7 {
        fill: #aaacb2;
      }
    </style>
  </defs>
  <path class="cls-2" d="m7.75,3.03h2.52v11.84c0,.67-.55,1.22-1.22,1.22h-.08c-.67,0-1.22-.55-1.22-1.22V3.03h0Z"/>
  <path class="cls-6" d="m9.01,7.1l5.39,5.36c.22.22.6.13.7-.16.51-1.51.16-3.23-1.05-4.43-1.37-1.36-3.42-1.61-5.04-.76h0Z"/>
  <path class="cls-1" d="m9.01,7.06h8.52c.35,0,.58-.37.43-.68-.79-1.6-2.43-2.69-4.33-2.69-2.16,0-3.99,1.42-4.61,3.38h-.01Z"/>
  <path class="cls-7" d="m9.02,7.03L15.07,1.04c.25-.25.15-.67-.18-.78-1.68-.58-3.63-.2-4.98,1.14-1.54,1.52-1.84,3.82-.9,5.64h.01Z"/>
  <path class="cls-4" d="m8.99,7.06L2.96,1.05c-.25-.25-.15-.67.18-.78,1.69-.58,3.63-.19,4.97,1.15,1.53,1.53,1.83,3.82.88,5.65h0Z"/>
  <path class="cls-5" d="m8.99,7.1l-5.39,5.36c-.22.22-.6.13-.7-.16-.51-1.51-.16-3.23,1.05-4.43,1.37-1.36,3.42-1.61,5.04-.76h0Z"/>
  <path class="cls-3" d="m8.99,7.06H.48c-.35,0-.58-.37-.43-.68.79-1.6,2.43-2.69,4.33-2.69,2.16,0,3.99,1.42,4.61,3.38h0Z"/>
</svg>