<!-- Generated by IcoMoon.io -->
<svg version="1.1" xmlns="http://www.w3.org/2000/svg" width="32" height="32" viewBox="0 0 32 32">
<title>palm2</title>
<path d="M31.851 12.395c-1.579-3.2-4.96-5.195-8.651-4.907l3.605-3.573c0.736-0.725 0.459-1.963-0.523-2.304-3.787-1.301-8.021 0.096-10.283 3.499-2.261-3.381-6.464-4.757-10.24-3.477-0.971 0.341-1.259 1.579-0.523 2.304l3.563 3.552c-0.235-0.021-0.469-0.032-0.715-0.032-3.435 0-6.475 1.973-7.947 4.939-0.448 0.928 0.224 2.005 1.248 2.005h5.963c-0.139 0.128-0.277 0.256-0.416 0.395-2.187 2.176-2.88 5.355-1.931 8.181 0.299 0.917 1.461 1.184 2.144 0.512 0.757-0.747 5.941-5.909 6.699-6.667v11.701c0 1.195 0.971 2.165 2.165 2.165s2.165-0.971 2.165-2.165v-11.669c0.885 0.885 5.632 5.6 6.667 6.635 0.683 0.683 1.845 0.405 2.155-0.512 1.003-3.008 0.149-6.411-2.357-8.576h5.963c0.491 0 0.928-0.245 1.184-0.651 0.256-0.416 0.277-0.917 0.064-1.355zM25.909 2.699c0.171 0.064 0.213 0.277 0.085 0.395-0.427 0.437-8.235 8.171-8.661 8.597 0.341-1.835 0.107-3.744-0.683-5.429 1.803-3.232 5.653-4.8 9.259-3.563zM6.048 3.115c-0.128-0.117-0.075-0.331 0.085-0.384 6.027-2.059 11.744 3.669 9.856 9.579-1.077-2.112-2.955-3.691-5.141-4.416l-4.8-4.779zM1.387 13.248c-0.171 0-0.288-0.181-0.213-0.341 1.312-2.645 3.957-4.299 6.912-4.299 3.072 0 5.845 1.792 7.072 4.64h-13.771zM6.197 22.709c-0.032-0.011-0.085-0.032-0.107-0.096-1.077-3.221 0.352-6.656 3.296-8.213h5.259c-8.875 8.832-8.32 8.341-8.448 8.309zM25.899 22.613c-0.032 0.107-0.171 0.128-0.245 0.053 0 0-8.299-8.256-8.309-8.267h5.259c2.933 1.547 4.384 4.971 3.296 8.213zM30.603 13.248h-13.216c0.341-0.331 3.84-3.808 4.384-4.341 3.563-1.013 7.371 0.608 9.045 4 0.075 0.16-0.032 0.341-0.213 0.341z"></path>
</svg>
