<svg width="100" height="100" viewBox="0 0 100 100" fill="none" xmlns="http://www.w3.org/2000/svg">
<path d="M28.5 39.5C27.9527 36.9001 30.6465 34.3211 34.5 34C40.5 33.5 50 34.5 54.9071 38.1053L54.4071 23.5C48.5 20.5 42.1486 19 36.011 19C21.0023 19 11 26.195 11 38.2253C11 57.0352 40 51.5 40.5 60.5C40.6744 63.64 38.6263 66 34.5 66C28.377 66 17.9906 62.5972 11.7784 59.5L11.7784 74.5C18 77.5 25.0547 79.9858 32.0155 80C47.402 80 58 73.9238 58 61.7029C58 41.4292 30.5 49 28.5 39.5Z" fill="black"/>
<circle cx="80.5" cy="68.5" r="9.5" fill="black"/>
</svg>
