<svg width="24" height="24" viewBox="0 0 24 24" fill="currentColor" xmlns="http://www.w3.org/2000/svg">
<path d="M12.0811 1.99996C13.8089 2.01401 15.5036 2.47582 17 3.33981C18.5201 4.21746 19.7825 5.47984 20.6602 6.99996C21.5378 8.5201 22 10.2447 22 12C22 13.7553 21.5378 15.4798 20.6602 17C19.7825 18.5201 18.5201 19.7825 17 20.6601C15.4798 21.5378 13.7553 22 12 22C10.2446 21.9999 8.52017 21.5378 7 20.6601C5.47985 19.7824 4.2175 18.5201 3.33984 17C2.4622 15.4798 1.99997 13.7553 2 12L2.00488 11.6757C2.06091 9.94878 2.5638 8.26591 3.46387 6.79098C4.36392 5.31608 5.63048 4.09929 7.14062 3.25973C8.65086 2.42016 10.3532 1.98592 12.0811 1.99996ZM12 6.24996C11.5858 6.24996 11.25 6.58576 11.25 6.99996V12C11.25 12.4142 11.5858 12.75 12 12.75H15.5C15.9142 12.75 16.25 12.4142 16.25 12C16.25 11.5858 15.9142 11.25 15.5 11.25H12.75V6.99996C12.75 6.58576 12.4142 6.24996 12 6.24996Z"/>
</svg>
