<svg width="12" height="12" viewBox="0 0 12 12" fill="none" xmlns="http://www.w3.org/2000/svg">
<circle cx="6" cy="6" r="6" fill="#023465"/>
<path d="M4.06128 4.12732C4.22013 3.73669 4.47274 3.43331 4.81909 3.21716C5.16545 2.99841 5.55737 2.88904 5.99487 2.88904C6.48185 2.88904 6.90112 3.02966 7.25269 3.31091C7.60946 3.58956 7.78784 3.97367 7.78784 4.46326C7.78784 4.65076 7.75399 4.82914 7.68628 4.99841C7.62118 5.16508 7.53914 5.30701 7.44019 5.42419C7.34123 5.54138 7.23315 5.65987 7.11597 5.77966C6.99878 5.89685 6.89071 6.00102 6.79175 6.09216C6.69279 6.18331 6.60946 6.28487 6.54175 6.39685C6.47664 6.50623 6.44409 6.6143 6.44409 6.72107H5.33862C5.33862 6.50232 5.40373 6.28748 5.53394 6.07654C5.66675 5.863 5.8256 5.68331 6.0105 5.53748C6.45841 5.1755 6.68237 4.84477 6.68237 4.54529C6.68237 4.35779 6.61857 4.21326 6.49097 4.11169C6.36336 4.01013 6.18498 3.95935 5.95581 3.95935C5.50529 3.95935 5.18758 4.19633 5.00269 4.67029L4.06128 4.12732ZM5.41284 8.50232C5.28003 8.36951 5.21362 8.21065 5.21362 8.02576C5.21362 7.83826 5.28003 7.6781 5.41284 7.54529C5.54565 7.41248 5.70581 7.34607 5.89331 7.34607C6.08081 7.34607 6.24097 7.41248 6.37378 7.54529C6.50659 7.6781 6.573 7.83826 6.573 8.02576C6.573 8.21065 6.50659 8.36951 6.37378 8.50232C6.24097 8.63513 6.08081 8.70154 5.89331 8.70154C5.70581 8.70154 5.54565 8.63513 5.41284 8.50232Z" fill="white"/>
</svg>
