<svg width="18" height="18" viewBox="0 0 18 18" fill="none" xmlns="http://www.w3.org/2000/svg">
<path d="M6.75 15.75V11.25C6.75 10.8522 6.90804 10.4706 7.18934 10.1893C7.47064 9.90804 7.85218 9.75 8.25 9.75H9.75C10.1478 9.75 10.5294 9.90804 10.8107 10.1893C11.092 10.4706 11.25 10.8522 11.25 11.25V15.75M3.75 9H2.25L9 2.25L15.75 9H14.25V14.25C14.25 14.6478 14.092 15.0294 13.8107 15.3107C13.5294 15.592 13.1478 15.75 12.75 15.75H5.25C4.85218 15.75 4.47064 15.592 4.18934 15.3107C3.90804 15.0294 3.75 14.6478 3.75 14.25V9Z" stroke="currentColor" stroke-width="1.5" stroke-linecap="round" stroke-linejoin="round"/>
</svg>
