<svg width="31" height="30" viewBox="0 0 31 30" fill="none" xmlns="http://www.w3.org/2000/svg">
<path d="M25.6243 14.1775C24.1009 14.7735 22.6985 15.6494 21.4873 16.7612C21.4337 15.9843 21.2673 15.2197 20.9935 14.4923C20.9935 14.4923 21.7999 12.9171 24.1435 11.2787C26.6736 9.51458 29.5747 9.0107 29.5747 9.0107C30.1993 10.3221 30.6161 11.7254 30.8094 13.1689C30.8094 13.1689 28.71 12.98 25.6238 14.1775H25.6243Z" fill="white"/>
<path d="M23.8349 8.95568C21.431 11.3496 20.5669 13.7445 20.5669 13.7445C20.1421 12.9872 19.5506 12.34 18.8386 11.8535C18.8386 11.8535 19.7603 9.01865 21.1841 6.93889C22.6001 4.79668 24.9468 3.09524 24.9468 3.09524C26.0898 3.97838 27.1073 5.01738 27.9708 6.18288C27.9708 6.18288 25.6259 7.25361 23.8349 8.95568Z" fill="white"/>
<path d="M19.6392 5.98643C18.9557 7.76824 18.4993 9.63156 18.2813 11.531C17.5407 11.1532 16.6189 10.8382 15.8117 10.7759C15.8049 8.91256 15.9925 7.05374 16.3713 5.23055C17.0468 1.95336 17.787 0.000175476 17.787 0.000175476C19.2108 0.125985 20.5691 0.567022 21.8612 1.13464C21.8612 1.13464 20.3798 4.03248 19.6392 5.98643Z" fill="white"/>
<path d="M23.583 23.7636C20.5618 22.3143 17.5333 22.6291 17.5333 22.6291C18.6014 22.219 19.5401 21.5222 20.2491 20.613C20.2491 20.613 22.9076 20.2981 24.9416 20.6759C28.0895 21.3687 29.4475 22.4401 29.4475 22.4401C28.8351 23.7771 28.0231 25.01 27.0403 26.0953C27.0403 26.0953 25.8055 24.8349 23.583 23.7634V23.7636Z" fill="white"/>
<path d="M25.8761 19.1561C22.85 19.0302 20.7515 19.8497 20.7515 19.8497C21.1336 19.1279 21.3661 18.3343 21.4345 17.5178C21.4345 17.5178 23.9002 16.1314 26.1231 15.817C29.2092 15.3762 31 16.0059 31 16.0059C30.9383 17.4552 30.753 18.9045 30.321 20.2908C28.9218 19.6348 27.4144 19.25 25.8761 19.1561Z" fill="white"/>
<path d="M5.37568 14.1773C6.89912 14.7734 8.30151 15.6493 9.51274 16.7611C9.56629 15.9842 9.73269 15.2196 10.0065 14.4922C10.0065 14.4922 9.20014 12.9169 6.85655 11.2786C4.32635 9.51444 1.42534 9.01056 1.42534 9.01056C0.800665 10.3219 0.383929 11.7253 0.190552 13.1688C0.190552 13.1688 2.28995 12.9799 5.37618 14.1773H5.37568Z" fill="white"/>
<path d="M7.1651 8.95554C9.56904 11.3495 10.4331 13.7444 10.4331 13.7444C10.8579 12.9871 11.4494 12.3399 12.1614 11.8534C12.1614 11.8534 11.2397 9.01851 9.81587 6.93875C8.39989 4.79653 6.05316 3.09509 6.05316 3.09509C4.91024 3.97823 3.89266 5.01723 3.02917 6.18274C3.02917 6.18274 5.37415 7.25346 7.1651 8.95554Z" fill="white"/>
<path d="M11.3607 5.98625C12.0442 7.76807 12.5005 9.63138 12.7186 11.5308C13.4592 11.153 14.381 10.838 15.1881 10.7757C15.1949 8.91238 15.0074 7.05356 14.6286 5.23037C13.9531 1.95318 13.2129 0 13.2129 0C11.7891 0.125937 10.4312 0.566847 9.13904 1.13446C9.13904 1.13446 10.6204 4.0323 11.361 5.98625H11.3607Z" fill="white"/>
<path d="M7.41701 23.7634C10.4382 22.3141 13.4667 22.6289 13.4667 22.6289C12.3986 22.2189 11.4599 21.5221 10.7509 20.6128C10.7509 20.6128 8.09236 20.2979 6.05836 20.6758C2.91051 21.3685 1.55249 22.4399 1.55249 22.4399C2.16489 23.7769 2.97686 25.0099 3.95971 26.0952C3.95971 26.0952 5.1945 24.8348 7.41701 23.7633V23.7634Z" fill="white"/>
<path d="M5.12389 19.156C8.15002 19.03 10.2485 19.8495 10.2485 19.8495C9.86641 19.1278 9.63394 18.3341 9.56549 17.5176C9.56549 17.5176 7.09981 16.1313 4.87693 15.8168C1.79083 15.376 0 16.0057 0 16.0057C0.0617397 17.455 0.24696 18.9043 0.679011 20.2907C2.07818 19.6347 3.58564 19.2498 5.12389 19.156Z" fill="white"/>
<path d="M15.4936 26.1567C19.8802 26.1567 21.7976 30 21.7976 30C23.1557 29.3849 24.4218 28.5787 25.5586 27.6051C25.5586 27.6051 21.8552 22.8793 15.4935 22.8793C9.19768 22.8793 5.49683 27.6051 5.49683 27.6051C6.60789 28.6136 7.90492 29.3702 9.26358 30C9.26358 30 11.1728 26.1566 15.4935 26.1567H15.4936Z" fill="white"/>
</svg>
