<svg width="25" height="28" viewBox="0 0 25 28" fill="none" xmlns="http://www.w3.org/2000/svg">
<path d="M0.0415521 8.61389C0.0445603 7.68763 0.546646 6.83238 1.36076 6.36675L8.52286 2.27042C10.2869 1.26146 12.5003 2.50754 12.5091 4.51462L12.5451 12.6992C12.5492 13.6358 12.0426 14.5027 11.2178 14.9706L3.99315 19.0693C2.22138 20.0745 0.00842932 18.8126 0.0149629 16.8009L0.0415521 8.61389Z" fill="#082A5E"/>
<path d="M3.98124 23.5952C2.21232 22.5907 2.21284 20.0793 3.98216 19.0755L11.2257 14.9661C12.0463 14.5006 13.0571 14.5008 13.8775 14.9667L21.0189 19.0219C22.7878 20.0264 22.7873 22.5378 21.018 23.5416L13.7745 27.651C12.9539 28.1165 11.9431 28.1163 11.1227 27.6504L3.98124 23.5952Z" fill="#ADCAF3"/>
<path d="M16.4875 2.27221C14.7144 1.2654 12.4993 2.52968 12.5084 4.54328L12.545 12.7151C12.5492 13.6432 13.0542 14.4992 13.8714 14.9632L21.0089 19.0162C22.78 20.022 24.9933 18.7614 24.988 16.7499L24.9665 8.58665C24.964 7.65693 24.4588 6.79872 23.6401 6.33386L16.4875 2.27221Z" fill="#FFC70F"/>
<path d="M0.0350164 10.6625L5.34052 13.6766L5.3055 24.3484L0 21.3343L0.0350164 10.6625Z" fill="#184487"/>
<path d="M8.43946 10.6886L5.3055 13.6578L5.3055 24.3484L8.59863 22.3253L8.43946 10.6886Z" fill="#09316E"/>
<path d="M12.5321 9.5375L7.2192 6.54277L0.0350164 10.6625L5.34051 13.6776L12.5321 9.5375Z" fill="#2E5CA3"/>
<path d="M5.30699 13.6578V17.5767L8.17419 16.6896L12.5539 14.237L12.5321 9.5375L5.30699 13.6578Z" fill="#09316E"/>
<path d="M21.8889 5.33996L16.556 8.3778L7.19267 3.03091L12.4835 0L21.8889 5.33996Z" fill="#FFEEB3"/>
<path d="M17.7356 12.3963L18.2812 9.27972L16.5697 8.31991L7.19267 3.03091L7.1511 6.58121L17.7356 12.3963Z" fill="#FFD440"/>
<path d="M16.6036 16.5706L21.9112 13.559L21.8889 5.33996L16.6099 8.34305L16.6036 16.5706Z" fill="#FFE280"/>
<path d="M16.6005 8.36501L12.5247 6.48797L12.5512 14.1848L16.6056 16.5651L16.6005 8.36501Z" fill="#FFD440"/>
<path d="M15.7547 26.5275L15.7336 20.4144L24.9836 15.0978L25 21.2868L15.7547 26.5275Z" fill="#6296E2"/>
<path d="M11.6245 19.4099L15.7531 20.4467L24.9836 15.098L21.9155 13.5587L16.7426 16.4548L11.6245 19.4099Z" fill="#8FB1E3"/>
<path d="M8.51504 16.3586L8.51297 22.3853L15.7547 26.5278L15.7536 20.4139L8.51504 16.3586Z" fill="#4279C9"/>
<path d="M15.7536 20.4467L19.5014 18.229L12.5512 14.1848L8.51533 16.3587L15.7536 20.4467Z" fill="#8FB1E3"/>
</svg>
