<svg width="27" height="26" viewBox="0 0 27 26" fill="none" xmlns="http://www.w3.org/2000/svg">
<rect x="0.337402" width="26" height="26" rx="13" fill="currentColor"/>
<path d="M18.082 8.27487C17.9611 8.14841 17.8059 8.06042 17.6354 8.02187C17.4651 7.98331 17.2871 7.99594 17.1239 8.05815L8.88377 11.1324C8.67185 11.2116 8.50076 11.3733 8.40922 11.5808C8.31768 11.7883 8.31347 12.0242 8.39762 12.2348C8.4817 12.4454 8.647 12.6132 8.85607 12.6999L11.8826 13.9554L14.9912 10.8363H14.9911C15.0892 10.7413 15.2297 10.7053 15.3611 10.7414C15.4925 10.7775 15.5951 10.8805 15.6312 11.0123C15.6672 11.1442 15.6312 11.2852 15.5366 11.3836L12.3982 14.5329L13.3792 17.4295C13.4335 17.5928 13.5368 17.7352 13.6749 17.8373C13.813 17.9394 13.9791 17.9963 14.1506 18H14.1757H14.1756C14.3428 18.0008 14.5064 17.951 14.6449 17.857C14.7834 17.7632 14.8905 17.6295 14.9522 17.4736L18.2695 9.24137C18.3365 9.0796 18.3544 8.90165 18.321 8.72974C18.2877 8.55784 18.2046 8.39962 18.0821 8.2749L18.082 8.27487Z" fill="white"/>
</svg>
