<svg xmlns="http://www.w3.org/2000/svg" width="18" height="18" viewBox="0 0 18 18" fill="none">
  <path d="M15.7053 9.78375C15.8642 8.42495 15.6064 7.04996 14.9661 5.84098C14.3259 4.632 13.3334 3.6461 12.1202 3.01392C10.9069 2.38175 9.53027 2.13314 8.17256 2.30103C6.81485 2.46893 5.54021 3.04542 4.51754 3.95409C3.49486 4.86277 2.77243 6.06074 2.44598 7.38927C2.11952 8.7178 2.20446 10.1142 2.68952 11.3933C3.17458 12.6725 4.03688 13.7741 5.16215 14.5521C6.28741 15.3301 7.62253 15.7479 8.99057 15.75M2.69995 6.75H15.3M2.69995 11.25H9.74995M8.625 2.25C7.3615 4.27471 6.69165 6.6134 6.69165 9C6.69165 11.3866 7.3615 13.7253 8.625 15.75M9.37524 2.25C10.8146 4.55539 11.4792 7.26058 11.272 9.9705M12.0002 16.5L15.7502 12.75M12.0002 16.5H15.3M12.0002 16.5V13" stroke="currentColor" stroke-width="1.5" stroke-linecap="round" stroke-linejoin="round"/>
</svg>
