<svg width="24" height="24" viewBox="0 0 24 24" fill="none" xmlns="http://www.w3.org/2000/svg">
<g id="caret-down">
<path id="Icon" d="M16.0686 9H7.9313C7.32548 9 7.02257 9 6.88231 9.1198C6.76061 9.22374 6.69602 9.37967 6.70858 9.53923C6.72305 9.72312 6.93724 9.93731 7.36561 10.3657L11.4342 14.4343C11.6322 14.6323 11.7313 14.7313 11.8454 14.7684C11.9458 14.8011 12.054 14.8011 12.1544 14.7684C12.2686 14.7313 12.3676 14.6323 12.5656 14.4343L16.6342 10.3657C17.0626 9.93731 17.2768 9.72312 17.2913 9.53923C17.3038 9.37967 17.2392 9.22374 17.1175 9.1198C16.9773 9 16.6744 9 16.0686 9Z" stroke="black" stroke-width="2" stroke-linecap="round" stroke-linejoin="round"/>
</g>
</svg>
