<svg width="60" height="60" viewBox="0 0 60 60" fill="none" xmlns="http://www.w3.org/2000/svg">
<path d="M20 12.5001C17.5291 12.5021 16.234 12.5334 15.23 13.045C14.2892 13.5243 13.5243 14.2892 13.045 15.23C12.5 16.2996 12.5 17.6997 12.5 20.5V44.5C12.5 47.3003 12.5 48.7004 13.045 49.77C13.5243 50.7108 14.2892 51.4757 15.23 51.955C16.2996 52.5 17.6997 52.5 20.5 52.5H39.5C42.3003 52.5 43.7004 52.5 44.77 51.955C45.7108 51.4757 46.4757 50.7108 46.955 49.77C47.5 48.7004 47.5 47.3003 47.5 44.5V20.5C47.5 17.6997 47.5 16.2996 46.955 15.23C46.4757 14.2892 45.7108 13.5243 44.77 13.045C43.766 12.5334 42.4709 12.5021 40 12.5001M20 12.5001V17.5H40V12.5001M20 12.5001V11.7678C20 10.6359 20.4496 9.55036 21.25 8.75C22.0504 7.94964 23.1359 7.5 24.2678 7.5H35.7322C36.8641 7.5 37.9496 7.94964 38.75 8.75C39.5504 9.55036 40 10.6359 40 11.7678V12.5001M25 30L35 40M35 30L25 40" stroke="currentColor" stroke-linecap="round" stroke-linejoin="round" stroke-width="1.5"/>
</svg>
