<svg width="24" height="24" viewBox="0 0 24 24" fill="none" xmlns="http://www.w3.org/2000/svg">
<g id="file-arrow-right">
<path id="Icon" d="M13 16H21M21 16L18 13M21 16L18 19M13 3H8.2C7.0799 3 6.51984 3 6.09202 3.21799C5.71569 3.40973 5.40973 3.71569 5.21799 4.09202C5 4.51984 5 5.0799 5 6.2V17.8C5 18.9201 5 19.4802 5.21799 19.908C5.40973 20.2843 5.71569 20.5903 6.09202 20.782C6.51984 21 7.0799 21 8.2 21H13.75M13 3L19 9H14.6C14.0399 9 13.7599 9 13.546 8.89101C13.3578 8.79513 13.2049 8.64215 13.109 8.45399C13 8.24008 13 7.96005 13 7.4V3Z" stroke="currentColor" stroke-width="1.5" stroke-linecap="round" stroke-linejoin="round"/>
</g>
</svg>
