<svg width="18" height="18" viewBox="0 0 18 18" fill="none" xmlns="http://www.w3.org/2000/svg">
<path d="M6.75 9.75H11.25M11.25 9.75L9.75 8.25M11.25 9.75L9.75 11.25M9.04706 4.54706L8.95294 4.45294C8.69352 4.19352 8.5638 4.0638 8.41243 3.97104C8.27822 3.8888 8.1319 3.82819 7.97885 3.79145C7.80622 3.75 7.62277 3.75 7.25589 3.75H4.65C3.80992 3.75 3.38988 3.75 3.06901 3.91349C2.78677 4.0573 2.5573 4.28677 2.41349 4.56901C2.25 4.88988 2.25 5.30992 2.25 6.15V11.85C2.25 12.6901 2.25 13.1101 2.41349 13.431C2.5573 13.7132 2.78677 13.9427 3.06901 14.0865C3.38988 14.25 3.80992 14.25 4.65 14.25H13.35C14.1901 14.25 14.6101 14.25 14.931 14.0865C15.2132 13.9427 15.4427 13.7132 15.5865 13.431C15.75 13.1101 15.75 12.6901 15.75 11.85V7.65C15.75 6.80992 15.75 6.38988 15.5865 6.06901C15.4427 5.78677 15.2132 5.5573 14.931 5.41349C14.6101 5.25 14.1901 5.25 13.35 5.25H10.7441C10.3772 5.25 10.1938 5.25 10.0212 5.20855C9.8681 5.17181 9.72178 5.1112 9.58757 5.02896C9.4362 4.9362 9.30648 4.80648 9.04706 4.54706Z" stroke="currentColor" stroke-linecap="round" stroke-linejoin="round" stroke-width="1.5"/>
</svg>
