<svg width="18" height="18" viewBox="0 0 18 18" fill="none" xmlns="http://www.w3.org/2000/svg">
<g id="Frame">
<path id="Vector" d="M10.5 6V4.5C10.5 4.10218 10.342 3.72064 10.0607 3.43934C9.77936 3.15804 9.39782 3 9 3H3.75C3.35218 3 2.97064 3.15804 2.68934 3.43934C2.40804 3.72064 2.25 4.10218 2.25 4.5V13.5C2.25 13.8978 2.40804 14.2794 2.68934 14.5607C2.97064 14.842 3.35218 15 3.75 15H9C9.39782 15 9.77936 14.842 10.0607 14.5607C10.342 14.2794 10.5 13.8978 10.5 13.5V12" stroke="#7F8792" stroke-width="1.5" stroke-linecap="round" stroke-linejoin="round"/>
<path id="Vector_2" d="M6.75 9H15.75L13.5 6.75" stroke="currentColor" stroke-width="1.5" stroke-linecap="round" stroke-linejoin="round"/>
<path id="Vector_3" d="M13.5 11.25L15.75 9" stroke="currentColor" stroke-width="1.5" stroke-linecap="round" stroke-linejoin="round"/>
</g>
</svg>
