<svg width="18" height="18" viewBox="0 0 18 18" fill="none" xmlns="http://www.w3.org/2000/svg">
<path d="M12.4937 6.96497C13.5735 7.63984 14.1134 7.97728 14.2985 8.40931C14.4602 8.78662 14.4602 9.21371 14.2985 9.59103C14.1134 10.0231 13.5735 10.3605 12.4937 11.0354L7.422 14.2052C6.22354 14.9542 5.62431 15.3287 5.1298 15.289C4.69876 15.2543 4.30364 15.0353 4.0458 14.6882C3.75 14.2899 3.75 13.5833 3.75 12.17V5.83036C3.75 4.41708 3.75 3.71044 4.0458 3.31217C4.30364 2.96501 4.69876 2.74601 5.1298 2.71136C5.62431 2.67161 6.22354 3.04613 7.422 3.79516L12.4937 6.96497Z" stroke="currentColor" stroke-linejoin="round" stroke-width="1.5"/>
</svg>
