<svg width="18" height="18" viewBox="0 0 18 18" fill="none" xmlns="http://www.w3.org/2000/svg">
<path d="M15.375 6.75011C14.25 3.75024 11.6501 2.25098 8.99934 2.25098C5.52542 2.25098 2.66449 4.87561 2.29124 8.25013M15.7071 9.75381C15.3326 13.1269 12.4723 15.7501 8.99934 15.7501C6.35042 15.7501 3.75 14.2501 2.625 11.2502M15.75 3.75011V6.75011H12.75M2.25 14.2501V11.2501H5.25M7.5 7.12095V10.8787C7.5 11.2429 7.5 11.425 7.57593 11.5254C7.64209 11.6128 7.7432 11.6669 7.85265 11.6735C7.97829 11.681 8.1298 11.58 8.43282 11.378L11.2512 9.49906C11.5015 9.33214 11.6267 9.24868 11.6704 9.14349C11.7085 9.05152 11.7085 8.94815 11.6704 8.85618C11.6267 8.75099 11.5015 8.66753 11.2512 8.50061L8.43282 6.62171C8.1298 6.4197 7.97829 6.31869 7.85265 6.32619C7.7432 6.33273 7.64209 6.38684 7.57593 6.47429C7.5 6.57467 7.5 6.75676 7.5 7.12095Z" stroke="currentColor" stroke-linecap="round" stroke-linejoin="round" stroke-width="1.5"/>
</svg>
