<svg width="24" height="24" viewBox="0 0 24 24" fill="none" xmlns="http://www.w3.org/2000/svg">
<g id="scale-balanced">
<path id="Icon" d="M3.99923 21H19.9992M11.9992 21V7M11.9992 7C13.1038 7 13.9992 6.10457 13.9992 5M11.9992 7C10.8947 7 9.99923 6.10457 9.99923 5M13.9992 5C13.9992 3.89543 13.1038 3 11.9992 3C10.8947 3 9.99923 3.89543 9.99923 5M13.9992 5H19.9992M9.99923 5H3.99923M5.99923 17C7.51177 17 8.76287 16.1584 8.96934 14.7513C8.98242 14.6621 8.98897 14.6175 8.98385 14.5186C8.98031 14.4503 8.95717 14.3256 8.93599 14.2605C8.90531 14.1664 8.86812 14.1003 8.79375 13.968L5.99923 9L3.2047 13.968C3.13575 14.0906 3.10128 14.1519 3.06939 14.2584C3.04977 14.3239 3.02706 14.4811 3.02735 14.5494C3.02781 14.6606 3.03453 14.6899 3.04799 14.7486C3.30295 15.86 4.5273 17 5.99923 17ZM17.9992 17C19.5118 17 20.7629 16.1584 20.9693 14.7513C20.9824 14.6621 20.989 14.6175 20.9838 14.5186C20.9803 14.4503 20.9572 14.3256 20.936 14.2605C20.9053 14.1664 20.8681 14.1003 20.7937 13.968L17.9992 9L15.2047 13.968C15.1358 14.0906 15.1013 14.1519 15.0694 14.2584C15.0498 14.3239 15.0271 14.4811 15.0273 14.5494C15.0278 14.6606 15.0345 14.6899 15.048 14.7486C15.303 15.86 16.5273 17 17.9992 17Z" stroke="black" stroke-width="2" stroke-linecap="round" stroke-linejoin="round"/>
</g>
</svg>
