<svg width="24" height="24" viewBox="0 0 24 24" fill="none" xmlns="http://www.w3.org/2000/svg">
<path d="M11.5001 11.9995H5.41847M5.24609 12.7967L4.24133 15.7981C3.69103 17.4419 3.41588 18.2638 3.61334 18.7699C3.78482 19.2095 4.15311 19.5427 4.60755 19.6696C5.13086 19.8156 5.92126 19.4599 7.50207 18.7486L17.6365 14.1881C19.1794 13.4937 19.9509 13.1466 20.1894 12.6643C20.3966 12.2453 20.3966 11.7537 20.1894 11.3347C19.9509 10.8524 19.1794 10.5052 17.6365 9.81086L7.48458 5.24254C5.90855 4.53333 5.12053 4.17873 4.59775 4.32419C4.14373 4.45052 3.77547 4.78288 3.6034 5.22161C3.40527 5.72679 3.67748 6.54692 4.2219 8.18718L5.24804 11.2788C5.34155 11.5605 5.3883 11.7014 5.40676 11.8455C5.42314 11.9733 5.42297 12.1027 5.40626 12.2305C5.38744 12.3745 5.34032 12.5152 5.24609 12.7967Z" stroke="currentColor" stroke-linecap="round" stroke-linejoin="round"/>
</svg>
